<?xml version="1.0" encoding="utf-8"?>
<!-- Generator: Adobe Illustrator 16.0.0, SVG Export Plug-In . SVG Version: 6.00 Build 0)  -->
<!DOCTYPE svg PUBLIC "-//W3C//DTD SVG 1.1//EN" "http://www.w3.org/Graphics/SVG/1.1/DTD/svg11.dtd">
<svg version="1.1" xmlns="http://www.w3.org/2000/svg" xmlns:xlink="http://www.w3.org/1999/xlink" x="0px" y="0px" width="450px"
	 height="140px" viewBox="0 0 450 140" enable-background="new 0 0 450 140" xml:space="preserve">
<g id="logo_x5F_desjardins_x5F_vert">
</g>
<g id="Calque_2">
	<g>
		<path fill="#00814D" d="M146.3,47.482l-15.599-0.003v45.186h15.783c14.132,0,23.264-8.84,23.264-22.515
			C169.751,56.59,160.327,47.482,146.3,47.482z M145.862,84.992h-5.948V55.21h6.359c8.308,0,14.341,6.288,14.341,14.953
			C160.614,78.895,154.548,84.992,145.862,84.992z"/>
		<path fill="#00814D" d="M36.412,49.739v40.672l35.224,20.334l35.223-20.334V49.739L71.638,29.4L36.412,49.739z M97.323,55.243
			v29.661L71.638,99.733L45.953,84.904V55.243l25.685-14.829L97.323,55.243z"/>
		<path fill="#00814D" d="M350.035,51.524c0,2.596-2.114,4.711-4.712,4.711c-2.6,0-4.714-2.115-4.714-4.711
			c0-2.599,2.114-4.714,4.714-4.714C347.921,46.81,350.035,48.925,350.035,51.524z M349.36,61.698h-8.076v30.967h8.076V61.698z"/>
		<path fill="#00814D" d="M221.721,73.514c-3.458-1.337-4.534-1.983-4.534-3.444c0-1.386,1.113-2.215,2.978-2.215
			c3.076,0,5.378,1.667,7.407,3.493l4.687-5.008c-3.013-3.243-7.488-5.177-11.998-5.177c-6.539,0-11.111,3.797-11.111,9.234
			c0,6.19,4.78,8.603,9.46,10.149c0.562,0.183,1.078,0.351,1.559,0.497c2.661,0.84,4.127,1.304,4.127,2.913
			c0,0.899-0.491,2.409-3.775,2.409c-3.043,0-6.045-1.479-7.699-3.776l-4.752,5.054c3.294,3.734,7.333,5.551,12.346,5.551
			c7.392,0,11.984-3.586,11.984-9.355C232.402,78.047,228.368,76.074,221.721,73.514z"/>
		<path fill="#00814D" d="M402.911,73.514c-3.457-1.337-4.533-1.983-4.533-3.444c0-1.386,1.112-2.215,2.978-2.215
			c3.075,0,5.378,1.667,7.408,3.493l4.683-5.008c-3.011-3.243-7.485-5.177-11.998-5.177c-6.538,0-11.107,3.797-11.107,9.234
			c0,6.19,4.778,8.603,9.459,10.149c0.562,0.183,1.076,0.351,1.556,0.497c2.666,0.84,4.129,1.304,4.129,2.913
			c0,0.899-0.492,2.409-3.773,2.409c-3.045,0-6.046-1.479-7.699-3.776l-4.753,5.054c3.292,3.734,7.331,5.551,12.347,5.551
			c7.393,0,11.982-3.586,11.982-9.355C413.591,78.047,409.557,76.074,402.911,73.514z"/>
		<path fill="#00814D" d="M246.809,51.524c0,2.596-2.116,4.711-4.714,4.711s-4.714-2.115-4.714-4.711
			c0-2.599,2.113-4.714,4.714-4.714S246.809,48.925,246.809,51.524z M237.22,104.689c5.32,0,8.922-3.658,8.922-10.942V61.698h-8.104
			v31.714c0,2.811-1.15,4.204-3.084,4.204c-0.937,0-1.843-0.276-2.692-0.758L230.9,103.6
			C232.897,104.388,234.529,104.689,237.22,104.689L237.22,104.689z"/>
		<path fill="#00814D" d="M272.388,63.419c-2.167-1.432-5.183-2.254-8.271-2.254c-5.094,0-9.274,1.834-11.786,5.167
			c0.549,0.597,4.034,4.292,4.711,5c1.269-1.772,2.479-2.692,4.271-3.251c0.668-0.208,1.393-0.314,2.16-0.314
			c0.984,0,1.971,0.178,2.703,0.492c1.916,0.814,3.013,2.403,3.013,4.361v2.022c-0.224-0.114-2.751-1.19-6.848-1.19
			c-6.52,0-11.435,4.307-11.435,10.015c0,5.644,4.227,9.734,10.05,9.734c3.635,0,5.89-1.6,7.885-3.251h0.348v2.72h7.669V72.422
			C276.859,68.408,275.355,65.379,272.388,63.419z M269.191,82.558c0,1.574-3.292,4.077-7.193,4.077
			c-2.408,0-3.992-1.586-3.992-3.567c0-1.293,0.717-3.686,4.9-3.686c3.091,0,6.282,0.966,6.282,0.966v2.21H269.191z"/>
		<path fill="#00814D" d="M291.886,65.323h-0.201v-3.627h-8.23v30.966h8.23l-0.013-13.939c0-5.588,2.771-9.392,9.75-9.392v-8.166
			C297.262,61.232,293.891,62.494,291.886,65.323z"/>
		<path fill="#00814D" d="M326.604,89.947h0.379v2.715h7.685V47.479h-8.091v16.767h-0.311c-1.604-1.922-5.408-3.081-7.982-3.081
			c-9.819,0-15.119,8.25-15.119,16.015c0,5.914,2.554,9.646,4.69,11.737c2.779,2.716,6.58,4.276,10.429,4.276
			C320.125,93.195,323.055,92.645,326.604,89.947z M318.748,85.889c-4.442,0-7.918-3.826-7.918-8.709c0-4.902,3.46-8.74,7.878-8.74
			c4.905,0,7.948,4.539,7.948,8.74C326.656,81.98,323.11,85.889,318.748,85.889z"/>
		<path fill="#00814D" d="M364.361,64.23h-0.313v-2.535h-8.089v30.966h8.089V76.548c0-7.119,4.422-8.181,7.056-8.181
			c4.665,0,6.323,3.871,6.323,7.496v16.799h8.092V75.958c0-9.272-4.956-14.79-13.261-14.79
			C366.526,61.168,364.403,64.14,364.361,64.23z"/>
		<path fill="#00814D" d="M204.734,76.842c-0.053-9.26-6.288-15.674-15.201-15.674c-8.898,0-15.356,6.72-15.356,15.985
			c0,9.448,6.557,16.045,15.95,16.045c5.497,0,10.271-2.024,13.115-5.551c-0.581-0.639-4.178-4.425-4.819-5.071
			c-1.487,1.699-4.233,3.469-7.657,3.469c-4.099,0-7.195-2.313-8.195-6.287h21.979C204.674,79.17,204.734,77.834,204.734,76.842z
			 M182.597,74.011c0.921-3.711,3.608-5.752,7.217-5.752c3.526,0,6.026,1.979,6.934,5.752H182.597z"/>
	</g>
</g>
</svg>
